<svg xmlns="http://www.w3.org/2000/svg" viewBox="0 0 600 600" role="img" aria-labelledby="title desc">
<title id="title">EVio firefly</title><desc id="desc">A pastel green and pink firefly inside a circular emblem.</desc>
<defs><radialGradient id="g" cx="50%" cy="48%"><stop offset="0" stop-color="#bde7c5" stop-opacity=".20"/><stop offset="1" stop-color="#07130f" stop-opacity="0"/></radialGradient><linearGradient id="wing" x1="0" x2="1"><stop stop-color="#d8f1cf" stop-opacity=".85"/><stop offset="1" stop-color="#92c99d" stop-opacity=".25"/></linearGradient><linearGradient id="glow" x1="0" x2="0" y1="0" y2="1"><stop stop-color="#fff2bd"/><stop offset="1" stop-color="#f6c86f" stop-opacity=".7"/></linearGradient></defs>
<circle cx="300" cy="300" r="268" fill="#0b1914" stroke="#c9e7cf" stroke-width="10"/><circle cx="300" cy="300" r="242" fill="url(#g)" stroke="#8ebd9a" stroke-opacity=".25" stroke-width="2"/>
<g fill="none" stroke="#526c60" stroke-width="13" stroke-linecap="round"><path d="M286 136 C278 90 246 62 212 52"/><path d="M314 136 C322 90 354 62 388 52"/></g><g fill="#6d8b7b"><circle cx="210" cy="51" r="12"/><circle cx="390" cy="51" r="12"/></g>
<path d="M300 120c-42 0-55 36-48 63 11 16 27 23 48 23s37-7 48-23c7-27-6-63-48-63Z" fill="#496257"/>
<path d="M278 145c-9 0-18 7-20 17" stroke="#a8cdb1" stroke-width="5" fill="none" stroke-linecap="round" opacity=".6"/>
<path d="M250 187C183 146 108 185 81 260c55 36 123 20 164-41 13-20 19-26 5-32Z" fill="url(#wing)" stroke="#9ccca5" stroke-width="8"/><path d="M350 187c67-41 142-2 169 73-55 36-123 20-164-41-13-20-19-26-5-32Z" fill="url(#wing)" stroke="#9ccca5" stroke-width="8"/>
<path d="M300 168c-49 0-68 36-64 82 4 50 31 73 64 73s60-23 64-73c4-46-15-82-64-82Z" fill="#e9f4e7" stroke="#3e554a" stroke-width="13"/><path d="M236 219h128" stroke="#3e554a" stroke-width="13" stroke-linecap="round"/><path d="M300 323l-43 74 43 76 43-76-43-74Z" fill="#0d1713" stroke="#3e554a" stroke-width="13" stroke-linejoin="round"/>
<path d="M300 395c-27 40-25 88 0 120 25-32 27-80 0-120Z" fill="url(#glow)" opacity=".95"/><g stroke="#f4cf7d" stroke-width="7" stroke-linecap="round"><path d="M300 531v27"/><path d="M253 516l-14 22"/><path d="M347 516l14 22"/><path d="M226 474l-25 12"/><path d="M374 474l25 12"/></g>
<g fill="#f58cae"><path d="M124 143l4 11 11 4-11 4-4 11-4-11-11-4 11-4Z"/><path d="M466 167l4 11 11 4-11 4-4 11-4-11-11-4 11-4Z"/></g><g fill="#a4d4ae"><circle cx="144" cy="207" r="7"/><circle cx="456" cy="218" r="7"/></g>
</svg>
